<svg id="Layer_1" data-name="Layer 1" xmlns="http://www.w3.org/2000/svg" xmlns:xlink="http://www.w3.org/1999/xlink" viewBox="0 0 1000 1000"><defs><linearGradient id="linear-gradient" x1="290.19" y1="347.53" x2="992.43" y2="883.63" gradientUnits="userSpaceOnUse"><stop offset="0" stop-color="#00ffb6"/><stop offset="1" stop-color="#0086ff"/></linearGradient><linearGradient id="linear-gradient-2" x1="376.53" y1="392.55" x2="709.87" y2="653.8" gradientUnits="userSpaceOnUse"><stop offset="0" stop-opacity="0"/><stop offset="0.95" stop-opacity="0.2"/></linearGradient><linearGradient id="linear-gradient-3" x1="388.42" y1="657.01" x2="570.51" y2="701.84" xlink:href="#linear-gradient-2"/></defs><title>preloader</title><path d="M728.55,384.69H614.6V276.08A74.07,74.07,0,0,0,540.53,202H459.47a74.07,74.07,0,0,0-74.07,74.07V384.69H267.33a64.61,64.61,0,0,0-64.61,64.61v100a64.61,64.61,0,0,0,64.61,64.61H385.4V746.25c0,21.36,6.47,39,25.15,47.54,13.6,6.2,28.07,5.63,40.86-2.35,14.83-9.25,20-27.49,21.1-44.22.65-9.67,1.05-19.34,1.32-29V635.48c0-14.68.28-29.35-.1-44-.51-19.67-3.82-44.41-25.32-51.75-8.71-3-19.11-3.1-28.23-3l-18.6.16-52.67.39-44.59.34c-3.94,0-8-.17-11.9.08-7.21.47-13.27-6.09-13.27-14.35,0-6.32,3.6-11.9,8.88-13.75l57.35-22.44,24-9.41L407,463l24.05-9.42,36.84-14.41-4.24-54.8c-2.58-33.32,7.71-66.26,28.17-90.14,4.73-5.52,12.31-5.52,17,0,20.46,23.89,30.75,56.81,28.18,90.12l-4.25,55.08L569,453.57,593,463l37.61,14.72,24,9.41L712,509.55c5.28,1.85,8.88,7.43,8.88,13.75,0,8.26-6.06,14.82-13.27,14.35-30.38-.21-60.74-.49-91.12-.66-15.62-.08-31.5-1.11-47.1-.2a56,56,0,0,0-16.46,3,46.33,46.33,0,0,0-13,7.44c-17.44,14.22-13.67,39.93-13.66,59.86V747c0,16,5.89,31.56,18.51,41.79a38.42,38.42,0,0,0,48.74.28c14.23-11.27,18.64-29.73,19.36-47,.36-8.67,0-17.35,0-26,0-23-.6-102-.6-102s116.3,0,116.3,0a68.76,68.76,0,0,0,68.73-68.77V453.42A68.73,68.73,0,0,0,728.55,384.69Z" fill="url(#linear-gradient)"/><path d="M500,202v88.08a11.21,11.21,0,0,0-8.15,4.13,109.1,109.1,0,0,0-7.57,9.92,0,0,0,0,1,0,0,119.29,119.29,0,0,0-15.62,33.19,128.63,128.63,0,0,0-5.36,36.86c0,.76,0,1.57,0,2.35,0,1.09.07,2.17.09,3.26.07,1.5.16,3,.28,4.52l4.24,54.8-36.83,14.42L407,463l-37.62,14.7-24,9.42L288,509.55a11.6,11.6,0,0,0-3.19,1.73l-82.12,32.36V449.3a64.6,64.6,0,0,1,64.6-64.6H385.41V276.08A74.08,74.08,0,0,1,459.48,202Z" fill="url(#linear-gradient-2)"/><path d="M473.83,635.48V718.2c-.28,9.67-.67,19.34-1.31,29-1.16,16.74-6.28,35-21.12,44.23-12.79,8-27.24,8.56-40.86,2.35-18.67-8.52-25.13-26.17-25.13-47.55V613.9H267.32a64.62,64.62,0,0,1-64.6-64.63v-22h76.93c1.55,6.3,6.76,10.8,12.76,10.41,3.95-.26,8-.07,11.91-.09q22.31-.18,44.57-.33,26.36-.21,52.7-.39c7-.07,11.63-.12,18.6-.16,9.12-.07,19.5.07,28.23,3,21.49,7.31,24.79,32.06,25.32,51.72C474.11,606.12,473.83,620.8,473.83,635.48Z" fill="url(#linear-gradient-3)"/></svg>