<svg xmlns="http://www.w3.org/2000/svg" width="33.314" height="33.298" viewBox="0 0 33.314 33.298"><defs><style>.a{fill:#bbb;}</style></defs><g transform="translate(0.01)"><path class="a" d="M28.49,4.948A16.192,16.192,0,0,0,16.857,0h-.011A16.845,16.845,0,0,0,4.919,4.841,16.642,16.642,0,0,0,16.637,33.3H16.7a16.529,16.529,0,0,0,11.727-4.867,16.359,16.359,0,0,0,4.89-11.64A16.7,16.7,0,0,0,28.49,4.948ZM16.672,2.972h.009a13.566,13.566,0,0,1,9.612,4,13.446,13.446,0,0,1,4.023,9.583A13.742,13.742,0,0,1,16.664,30.334h-.016a13.681,13.681,0,0,1,.023-27.361Z" transform="translate(-0.01)"/><path class="a" d="M136.688,90.573a10.336,10.336,0,0,0-4.615-.508,8.587,8.587,0,0,0-5.73,3.117,7.6,7.6,0,0,0-1.532,5.88,3.693,3.693,0,0,0,3,3.411l.149.034.081-.129a2.031,2.031,0,0,0,.031-2.4,3.81,3.81,0,0,1-.446-3.283,6.076,6.076,0,0,1,6.113-4.4c2.071.18,3.4,1.089,3.966,2.7a7.42,7.42,0,0,1-.938,6.784,2.856,2.856,0,0,1-1.481,1.165,2.15,2.15,0,0,1-2.152-.275,1.627,1.627,0,0,1-.351-1.814c.1-.406.219-.818.338-1.215s.249-.836.349-1.261a13.492,13.492,0,0,0,.349-2.1,1.47,1.47,0,0,0-1.021-1.512,2.052,2.052,0,0,0-2.6.784,4.345,4.345,0,0,0-.588,3.98,1.989,1.989,0,0,1,.043,1.266c-.029.1-.052.192-.074.285-.011.045-.021.089-.032.133-.123.486-.256.979-.384,1.455a25.819,25.819,0,0,0-1.017,5.116c-.046.738-.034,1.488-.023,2.214.005.325.011.662.011.991v.191l.466.067.073-.061c1.946-1.63,2.465-3.95,2.964-6.2q.067-.312.141-.624l.081.055c.22.147.424.285.627.423a3.887,3.887,0,0,0,2.072.725,5.836,5.836,0,0,0,5.45-2.991,9.662,9.662,0,0,0,1.381-5.915A6.6,6.6,0,0,0,136.688,90.573Z" transform="translate(-116.43 -84.007)"/></g></svg>