<svg xmlns="http://www.w3.org/2000/svg" width="35.516" height="25.849" viewBox="0 0 35.516 25.849"><defs><style>.a{fill:none;stroke:#2aefc8;stroke-linecap:round;stroke-linejoin:round;stroke-width:3px;}</style></defs><g transform="translate(1.5 1.5)"><path class="a" d="M32.835,7.577a4.109,4.109,0,0,0-2.867-2.956C27.426,4,17.257,4,17.257,4S7.089,4,4.547,4.68A4.109,4.109,0,0,0,1.68,7.636,42.86,42.86,0,0,0,1,15.454a42.86,42.86,0,0,0,.68,7.877,4.109,4.109,0,0,0,2.867,2.838c2.542.68,12.71.68,12.71.68s10.168,0,12.71-.68a4.109,4.109,0,0,0,2.867-2.956,42.859,42.859,0,0,0,.68-7.759,42.86,42.86,0,0,0-.68-7.877Z" transform="translate(-0.999 -4)"/><path class="a" d="M9.75,18.146l8.5-4.833L9.75,8.48Z" transform="translate(3.183 -1.859)"/></g></svg>