<svg id="Layer_1" data-name="Layer 1" xmlns="http://www.w3.org/2000/svg" xmlns:xlink="http://www.w3.org/1999/xlink" viewBox="0 0 1000 1000"><defs><linearGradient id="linear-gradient" x1="1095.98" y1="468.19" x2="-1365.81" y2="574.81" gradientUnits="userSpaceOnUse"><stop offset="0" stop-color="#00ffb6"/><stop offset="1" stop-color="#0086ff"/></linearGradient><linearGradient id="linear-gradient-2" x1="1095.58" y1="458.87" x2="-1366.21" y2="565.49" xlink:href="#linear-gradient"/><linearGradient id="linear-gradient-3" x1="1096.35" y1="476.73" x2="-1365.44" y2="583.35" xlink:href="#linear-gradient"/><linearGradient id="linear-gradient-4" x1="1096.48" y1="479.68" x2="-1365.31" y2="586.3" xlink:href="#linear-gradient"/><linearGradient id="linear-gradient-5" x1="1096.26" y1="474.53" x2="-1365.53" y2="581.14" xlink:href="#linear-gradient"/><linearGradient id="linear-gradient-6" x1="1096.54" y1="480.99" x2="-1365.25" y2="587.61" xlink:href="#linear-gradient"/><linearGradient id="linear-gradient-7" x1="1096.56" y1="481.66" x2="-1365.23" y2="588.28" xlink:href="#linear-gradient"/><linearGradient id="linear-gradient-8" x1="1095.88" y1="465.84" x2="-1365.91" y2="572.46" xlink:href="#linear-gradient"/><linearGradient id="linear-gradient-9" x1="1096.39" y1="477.74" x2="-1365.4" y2="584.36" xlink:href="#linear-gradient"/><linearGradient id="linear-gradient-10" x1="1096.46" y1="479.18" x2="-1365.33" y2="585.8" xlink:href="#linear-gradient"/><linearGradient id="linear-gradient-11" x1="636.09" y1="445.51" x2="887.04" y2="637.09" xlink:href="#linear-gradient"/><linearGradient id="linear-gradient-12" x1="666.95" y1="461.6" x2="786.07" y2="554.96" gradientUnits="userSpaceOnUse"><stop offset="0" stop-opacity="0"/><stop offset="0.95" stop-opacity="0.2"/></linearGradient><linearGradient id="linear-gradient-13" x1="671.2" y1="556.11" x2="736.27" y2="572.13" xlink:href="#linear-gradient-12"/></defs><title>svg a logo</title><path d="M228.46,517.25q0,10.18-7.05,16.21-6.28,5.35-16,5.35-11.46,0-17.74-8.06A23.23,23.23,0,0,1,182.69,516a21.56,21.56,0,0,1,3.15-11.72L196,502.13a23.55,23.55,0,0,0-3.4,12.14q0,6.47,3.65,10.45a11.74,11.74,0,0,0,9.08,3.82q5.87,0,9.13-3c2.18-2,3.27-4.76,3.27-8.32V490.58l10.7-5.6Zm-23.52-31.34a5.48,5.48,0,0,1-4.07-1.53,5.6,5.6,0,0,1-1.53-4.16,5.4,5.4,0,0,1,1.53-4,5.53,5.53,0,0,1,9.59,4C210.46,484,208.62,485.91,204.94,485.91Z" fill="url(#linear-gradient)"/><path d="M243.74,522.68V473.6l10.7-5.69v54.77Z" fill="url(#linear-gradient-2)"/><path d="M296.56,512.41h7.64v10.27h-8.66a17.92,17.92,0,0,1-5.35-.76,20.07,20.07,0,0,1-6.54,12.9,17.48,17.48,0,0,1-11.8,4.25,22,22,0,0,1-10.45-2.72V527a17.77,17.77,0,0,0,8.66,2.46,9.07,9.07,0,0,0,7.27-3q2.58-3,2.58-8.36V490.58l7-3.65,3.65-1.95v.08l.08-.08v21.31c0,2.21.46,3.78,1.36,4.72S294.4,512.41,296.56,512.41Z" fill="url(#linear-gradient-3)"/><path d="M303.69,541.62a5.51,5.51,0,0,1-4.08-1.53,5.62,5.62,0,0,1-1.52-4.16c0-3.68,1.86-5.52,5.6-5.52a5.13,5.13,0,0,1,5.52,5.52Q309.21,541.62,303.69,541.62Zm-4.59-18.94V512.41h7.64c2.16,0,3.69-.47,4.59-1.4s1.36-2.51,1.36-4.72V490.58l10.7-5.6V506.8q0,7.72-4.76,12.06-4.15,3.82-10.87,3.82Zm17.67,18.94a5.51,5.51,0,0,1-4.08-1.53,5.63,5.63,0,0,1-1.53-4.16q0-5.52,5.61-5.52a5.11,5.11,0,0,1,5.51,5.52Q322.28,541.62,316.77,541.62Z" fill="url(#linear-gradient-4)"/><path d="M334.85,545.78l2.72-4.93h2.55a7.06,7.06,0,0,1-.94-3.48,6.31,6.31,0,0,1,2-4.67,6.62,6.62,0,0,1,4.8-2,7.4,7.4,0,0,1,4.75,1.78v4.92a6.27,6.27,0,0,0-4.07-1.78c-1.87,0-2.81.85-2.81,2.55a4.2,4.2,0,0,0,1.11,2.63h8.4l-2.71,4.93Zm3.82-23.1V473.6l10.7-5.69v54.77Z" fill="url(#linear-gradient-5)"/><path d="M389,517.41q0,9.86-5.43,16a16.8,16.8,0,0,1-13.24,5.69,22,22,0,0,1-10.45-2.72V527a17.71,17.71,0,0,0,8.66,2.46,9,9,0,0,0,7.26-3q2.6-3,2.59-8.36V490.67L389,485Z" fill="url(#linear-gradient-6)"/><path d="M444.64,512.41v10.27H434.2a16.16,16.16,0,0,1-6.79,12.23,19.57,19.57,0,0,1-11.89,3.73,20.85,20.85,0,0,1-10.44-2.89V526.5a18.29,18.29,0,0,0,9.16,2.63,10.7,10.7,0,0,0,6.33-2,6.39,6.39,0,0,0,3-4.67c-.45-.06-1.16-.11-2.12-.17l-2.2-.26q-8.76-.93-13.51-6.87a18.89,18.89,0,0,1-4-12.14q0-9.35,5.1-14.78,4.5-4.76,11.89-4.76,7.54,0,11.8,4.85,3.65,4.15,3.65,10.87v13.16Zm-21.06-13.34q0-5.6-4.83-5.6-6.47,0-6.46,9.26,0,8.24,7.47,9.17a29.14,29.14,0,0,0,3.82.42Z" fill="url(#linear-gradient-7)"/><path d="M439.55,522.68V512.41h7.64c2.15,0,3.68-.47,4.59-1.4s1.35-2.51,1.35-4.72V490.58l10.7-5.6V506.8q0,7.72-4.75,12.06-4.17,3.82-10.87,3.82Zm6.11-46.28a5.55,5.55,0,0,1-4.08-1.52,5.67,5.67,0,0,1-1.52-4.17q0-5.52,5.6-5.52a5.14,5.14,0,0,1,5.52,5.52C451.18,474.51,449.34,476.4,445.66,476.4Zm13.08,0a5.55,5.55,0,0,1-4.08-1.52,5.63,5.63,0,0,1-1.53-4.17q0-5.52,5.61-5.52a5.14,5.14,0,0,1,5.52,5.52C464.26,474.51,462.42,476.4,458.74,476.4Z" fill="url(#linear-gradient-8)"/><path d="M472.32,522.68l5.35-10.27h13.42c2.88,0,4.33-1.67,4.33-5q0-9.34-9-14.36l5.26-9.08q13.24,7.73,14.27,21,.33,4.26,1.91,5.86t5.39,1.62h6.45v10.27h-7.05A16.4,16.4,0,0,1,502,519.2q-3.14,3.48-9,3.48Z" fill="url(#linear-gradient-9)"/><path d="M528.19,499.25q0-7.65,4.76-12a15.41,15.41,0,0,1,10.7-3.74q8.4,0,13.07,6.2,4,5.19,4,13.34,0,9.42-5,14.85a15.06,15.06,0,0,1-11.46,4.76q-6.79,0-11.12-3a16.27,16.27,0,0,1-9.85,3h-8.66V512.41h7.64c2.15,0,3.68-.47,4.58-1.4s1.36-2.51,1.36-4.72Zm10.7,8.4q0,4.75,5,4.76,6.29,0,6.28-9.68,0-9.25-6.53-9.26-4.75,0-4.76,5.6Z" fill="url(#linear-gradient-10)"/><path d="M792.74,458.79H752V420a26.47,26.47,0,0,0-26.47-26.47h-29A26.47,26.47,0,0,0,670.12,420v38.81H627.93a23.09,23.09,0,0,0-23.09,23.09v35.73a23.09,23.09,0,0,0,23.09,23.09h42.19V588c0,7.63,2.31,14,9,17a15,15,0,0,0,14.61-.84c5.3-3.31,7.13-9.82,7.54-15.8.23-3.46.37-6.92.47-10.37V548.42c0-5.25.1-10.49,0-15.73-.18-7-1.36-15.87-9-18.49-3.12-1.07-6.83-1.11-10.09-1.09l-6.65.06-18.82.14-15.94.11c-1.41,0-2.84-.06-4.25,0-2.57.16-4.74-2.18-4.74-5.13a5.13,5.13,0,0,1,3.17-4.92l20.5-8,8.59-3.36,13.44-5.26,8.59-3.36,13.17-5.16-1.52-19.58a44.48,44.48,0,0,1,10.07-32.21,3.88,3.88,0,0,1,6.09,0,44.48,44.48,0,0,1,10.07,32.2l-1.52,19.69,12.92,5.06,8.6,3.36L757.76,492l8.59,3.36,20.47,8a5.11,5.11,0,0,1,3.17,4.92c0,2.95-2.16,5.29-4.74,5.13-10.85-.08-21.7-.18-32.56-.24-5.58,0-11.26-.4-16.83-.07a19.65,19.65,0,0,0-5.89,1.08,16.45,16.45,0,0,0-4.63,2.66c-6.23,5.08-4.88,14.26-4.88,21.39v50c0,5.72,2.11,11.28,6.62,14.94a13.73,13.73,0,0,0,17.41.1c5.09-4,6.67-10.63,6.92-16.82.13-3.09,0-6.2,0-9.3,0-8.21-.22-36.46-.22-36.46s41.56,0,41.56,0a24.58,24.58,0,0,0,24.57-24.58V483.36A24.57,24.57,0,0,0,792.74,458.79Z" fill="url(#linear-gradient-11)"/><path d="M711.07,393.51V425a4,4,0,0,0-2.91,1.47,39,39,0,0,0-2.7,3.55h0a42.89,42.89,0,0,0-5.59,11.86A46,46,0,0,0,698,455.05c0,.27,0,.56,0,.84l0,1.17c0,.53.06,1.08.1,1.61l1.52,19.58-13.17,5.16-8.59,3.36L664.4,492l-8.58,3.36-20.5,8a4.5,4.5,0,0,0-1.14.62l-29.34,11.56V481.88a23.08,23.08,0,0,1,23.08-23.08h42.2V420a26.47,26.47,0,0,1,26.47-26.47Z" fill="url(#linear-gradient-12)"/><path d="M701.72,548.41V578c-.1,3.45-.24,6.91-.47,10.36-.41,6-2.24,12.5-7.55,15.81a15,15,0,0,1-14.6.84c-6.67-3-9-9.35-9-17V540.7h-42.2a23.08,23.08,0,0,1-23.08-23.09v-7.87h27.49a4.56,4.56,0,0,0,4.56,3.72c1.41-.09,2.84,0,4.25,0l15.93-.11,18.83-.14,6.65-.06c3.26,0,7,0,10.09,1.09,7.68,2.61,8.86,11.46,9.05,18.48C701.82,537.92,701.72,543.17,701.72,548.41Z" fill="url(#linear-gradient-13)"/></svg>